<svg width="25" height="24" viewBox="0 0 25 24" fill="none" xmlns="http://www.w3.org/2000/svg">
<path d="M18.7987 5.70997C18.4087 5.31997 17.7787 5.31997 17.3887 5.70997L12.4988 10.59L7.60875 5.69997C7.21875 5.30997 6.58875 5.30997 6.19875 5.69997C5.80875 6.08997 5.80875 6.71997 6.19875 7.10997L11.0888 12L6.19875 16.89C5.80875 17.28 5.80875 17.91 6.19875 18.3C6.58875 18.69 7.21875 18.69 7.60875 18.3L12.4988 13.41L17.3887 18.3C17.7787 18.69 18.4087 18.69 18.7987 18.3C19.1887 17.91 19.1887 17.28 18.7987 16.89L13.9087 12L18.7987 7.10997C19.1787 6.72997 19.1787 6.08997 18.7987 5.70997Z" fill="white"/>
</svg>
